<svg xmlns="http://www.w3.org/2000/svg" style="display:none">
  <symbol id="logo" viewBox="0 0 24 24">
    <circle cx="12" cy="12" r="10" fill="url(#g1)" />
    <defs>
      <linearGradient id="g1" x1="0" x2="1">
        <stop offset="0" stop-color="#00d4aa" />
        <stop offset="1" stop-color="#7c5cbf" />
      </linearGradient>
    </defs>
  </symbol>
  <symbol id="search" viewBox="0 0 24 24">
    <path fill="currentColor" d="M15.5 14h-.79l-.28-.27A6.471 6.471 0 0016 9.5 6.5 6.5 0 109.5 16a6.471 6.471 0 004.23-1.57l.27.28v.79l5 4.99L20.49 19l-4.99-5zM10 14a4 4 0 110-8 4 4 0 010 8z"/>
  </symbol>
  <symbol id="lab" viewBox="0 0 24 24">
    <path fill="currentColor" d="M6 2v2h1v9a4 4 0 003 3.87V20h4v-3.13A4 4 0 0017 13V4h1V2H6zM8 4h8v9a2 2 0 01-2 2H10a2 2 0 01-2-2V4z"/>
  </symbol>
  <symbol id="dna" viewBox="0 0 24 24">
    <path fill="currentColor" d="M7 2h2v2H7zm8 0h2v2h-2zM7 20h2v2H7zm8 0h2v2h-2zM10 4h4v16h-4z"/>
  </symbol>
  <symbol id="mushroom" viewBox="0 0 24 24">
    <path fill="currentColor" d="M12 2a7 7 0 00-7 7c0 3 2 5 7 5s7-2 7-5a7 7 0 00-7-7zm-4 14v2h8v-2H8z"/>
  </symbol>
  <symbol id="worm" viewBox="0 0 24 24">
    <path fill="currentColor" d="M3 12c2-4 6-6 10-6s8 2 8 6-4 6-8 6H7c-2 0-4-1-4-4z"/>
  </symbol>
  <symbol id="brain" viewBox="0 0 24 24">
    <path fill="currentColor" d="M12 2a6 6 0 00-6 6v2H4v4h2v2a6 6 0 006 6 6 6 0 006-6v-2h2v-4h-2V8a6 6 0 00-6-6z"/>
  </symbol>
  <symbol id="arrow-left" viewBox="0 0 24 24">
    <path fill="currentColor" d="M14 7l-5 5 5 5V7z"/>
  </symbol>
  <symbol id="book" viewBox="0 0 24 24">
    <path fill="currentColor" d="M18 2H6a2 2 0 00-2 2v16l6-2 6 2V4a2 2 0 00-2-2z"/>
  </symbol>
  <symbol id="microbe" viewBox="0 0 24 24">
    <path fill="currentColor" d="M12 2a5 5 0 00-5 5c0 1.1.36 2.12.97 2.95L6 13h12l-1.97-3.05A4.98 4.98 0 0017 7a5 5 0 00-5-5z"/>
  </symbol>
  <symbol id="transfer" viewBox="0 0 24 24">
    <path fill="currentColor" d="M4 12h10v2H4v-2zm6-6h10v2H10V6zm0 12h10v2H10v-2z"/>
  </symbol>
  <symbol id="hospital" viewBox="0 0 24 24">
    <path fill="currentColor" d="M12 2L2 7v13h8v-6h4v6h8V7L12 2zM11 11H7v-2h4V7h2v2h4v2h-4v4h-2v-4z"/>
  </symbol>
  <symbol id="shield" viewBox="0 0 24 24">
    <path fill="currentColor" d="M12 2l8 4v6c0 5-3.8 9.7-8 10-4.2-.3-8-5-8-10V6l8-4z"/>
  </symbol>
  <symbol id="bolt" viewBox="0 0 24 24">
    <path fill="currentColor" d="M13 2L3 14h7l-1 8 10-12h-7l1-8z"/>
  </symbol>
  <symbol id="tag" viewBox="0 0 24 24">
    <path fill="currentColor" d="M20 10v10H4V4h10l6 6zM14 8a2 2 0 110 4 2 2 0 010-4z"/>
  </symbol>
  <symbol id="india-flag" viewBox="0 0 24 24">
    <rect width="24" height="12" y="6" fill="currentColor" />
  </symbol>
</svg>